REM MD5 6b1054349aabda28e8f55ebc437dd81c
FILE "Dengeki PlayStation D44 (Japan).bin" BINARY
  TRACK 01 MODE2/2352
    INDEX 01 00:00:00
  TRACK 02 AUDIO
    INDEX 00 48:59:05
    INDEX 01 49:01:05
  TRACK 03 AUDIO
    INDEX 00 54:41:05
    INDEX 01 54:43:05
  TRACK 04 AUDIO
    INDEX 00 56:55:38
    INDEX 01 56:57:38
  TRACK 05 AUDIO
    INDEX 00 60:15:01
    INDEX 01 60:17:01
REM LEADOUT 63:47:01
